# xmcd
#
# Track frame offsets:
#	150
#	16755
#	29944
#	43089
#	55573
#	69672
#	85063
#	103502
#	120305
#	138584
#	158319
#	176058
#	188435
#	206186
#	221298
#	237957
#	254024
#	266146
#	282648
#
# Disc length: 3976 seconds
#
# Revision: 1
# Processed by: cddbd v1.5.2PL0 Copyright (c) Steve Scherf et al.
# Submitted via: audiograbber 1.83.01
#
DISCID=120f8613
DTITLE=Various Artist - Winners 2020 [Disc 1]
DYEAR=2020
DGENRE=Country
TTITLE0=Lee Kernaghan - Backroad Nation
TTITLE1=Felicity Urquhart - Chain Of Joy
TTITLE2=Morgan Evans - Young Again
TTITLE3=Busby Marou - Lucky Stars
TTITLE4=Seaforth - Love That
TTITLE5=Brad Cox - Rusty Strings
TTITLE6=Luke O'Shea and Lyn Bowtell - Sing Me A Story
TTITLE7=Brad Butcher - Freshwater Lady
TTITLE8=Fanny Lumsden - Real Men Don't Cry (War On Pride)
TTITLE9=Blake O'Connor - Worth A Little More
TTITLE10=Gina Jeffreys - Cash
TTITLE11=Andrew Swift and Gretta Ziller - Second Hand
TTITLE12=Kristy Cox - Yesterday's Headache
TTITLE13=Casey Barnes - A Little More
TTITLE14=Michael Waugh - Big Things
TTITLE15=Cornell and Carr - We Go Way Back
TTITLE16=Mustered Courage - Death Mountain Run
TTITLE17=Jenny Mitchell - Wildfires
TTITLE18=Michael Fix - The Balcony Bunch
EXTD=48th Country Music Awards of Australia
EXTT0=
EXTT1=
EXTT2=
EXTT3=
EXTT4=
EXTT5=
EXTT6=
EXTT7=
EXTT8=
EXTT9=
EXTT10=
EXTT11=
EXTT12=
EXTT13=
EXTT14=
EXTT15=
EXTT16=
EXTT17=
EXTT18=
PLAYORDER=
